<svg xmlns="http://www.w3.org/2000/svg" width="100%" height="100%" viewBox="0 0 1200 360"><defs><linearGradient id="bg-gradient" x1="0%" x2="100%" y1="0%" y2="100%"><stop offset="0%" stop-color="#0b0f19"/><stop offset="50%" stop-color="#111827"/><stop offset="100%" stop-color="#0f172a"/></linearGradient><linearGradient id="primary-glow" x1="0%" x2="100%" y1="0%" y2="0%"><stop offset="0%" stop-color="#3b82f6"/><stop offset="50%" stop-color="#8b5cf6"/><stop offset="100%" stop-color="#ec4899"/></linearGradient><linearGradient id="card-grad" x1="0%" x2="0%" y1="0%" y2="100%"><stop offset="0%" stop-color="#1e293b" stop-opacity=".7"/><stop offset="100%" stop-color="#0f172a" stop-opacity=".8"/></linearGradient><pattern id="grid" width="40" height="40" patternUnits="userSpaceOnUse"><path fill="none" stroke="#334155" stroke-opacity=".3" stroke-width=".7" d="M 40 0 L 0 0 0 40"/></pattern><style>@keyframes pulse{0%{transform:scale(.98);opacity:.4}}@keyframes flow{0%{stroke-dashoffset:0}}@keyframes glow{0%{filter:drop-shadow(0 0 4px rgba(59,130,246,.4))}}.pulse-circle{animation:pulse 4s ease-in-out infinite alternate}.dash-flow{stroke-dasharray:8,8;animation:flow 20s linear infinite}.node-glow{animation:glow 3s ease-in-out infinite alternate}</style></defs><rect width="1200" height="360" fill="url(#bg-gradient)" rx="16"/><rect width="1200" height="360" fill="url(#grid)" rx="16"/><circle cx="150" cy="80" r="180" fill="#3b82f6" class="pulse-circle" opacity=".08"/><circle cx="1050" cy="280" r="220" fill="#8b5cf6" class="pulse-circle" opacity=".08"/><g stroke="url(#primary-glow)" stroke-width="2" opacity=".25"><path fill="none" d="M 100 290 L 350 290 L 500 240 L 700 240 L 850 290 L 1100 290" class="dash-flow"/><path fill="none" d="M 200 70 L 400 70 L 550 120 L 750 120 L 900 70 L 1050 70" class="dash-flow"/></g><g text-anchor="middle" transform="translate(600, 0)"><g transform="translate(0, 48)"><rect width="280" height="30" x="-140" y="0" fill="#1e293b" stroke="#3b82f6" stroke-width="1.2" opacity=".9" rx="15"/><text x="0" y="19" fill="#60a5fa" font-family="-apple-system, BlinkMacSystemFont, 'Segoe UI', Roboto, Helvetica, Arial, sans-serif" font-size="12" font-weight="700" letter-spacing="1.5">IMMUTABLE INFRASTRUCTURE</text></g><text x="0" y="130" fill="#fff" class="node-glow" font-family="-apple-system, BlinkMacSystemFont, 'Segoe UI', Roboto, Helvetica, Arial, sans-serif" font-size="38" font-weight="800" letter-spacing="-.5">Awesome Automated Machine Image Building 🖼️ ⚙️</text><text x="0" y="172" fill="#94a3b8" font-family="-apple-system, BlinkMacSystemFont, 'Segoe UI', Roboto, Helvetica, Arial, sans-serif" font-size="16" font-weight="400">Curated Golden Image Pipelines, Multi-Cloud Provisioning &amp; Open-Source Automation Frameworks</text><g><g transform="translate(0, 215) translate(-330, 0)"><rect width="150" height="42" x="0" y="0" fill="url(#card-grad)" stroke="#334155" stroke-width="1.5" rx="10"/><text x="75" y="26" fill="#e2e8f0" font-family="-apple-system, BlinkMacSystemFont, 'Segoe UI', Roboto, sans-serif" font-size="13" font-weight="600">☁️ Multi-Cloud AMIs</text></g><g transform="translate(0, 215) translate(-165, 0)"><rect width="150" height="42" x="0" y="0" fill="url(#card-grad)" stroke="#334155" stroke-width="1.5" rx="10"/><text x="75" y="26" fill="#e2e8f0" font-family="-apple-system, BlinkMacSystemFont, 'Segoe UI', Roboto, sans-serif" font-size="13" font-weight="600">🏗️ Packer Pipelines</text></g><g transform="translate(0, 215) translate(0, 0)"><rect width="165" height="42" x="0" y="0" fill="url(#card-grad)" stroke="#334155" stroke-width="1.5" rx="10"/><text x="82.5" y="26" fill="#e2e8f0" font-family="-apple-system, BlinkMacSystemFont, 'Segoe UI', Roboto, sans-serif" font-size="13" font-weight="600">🛡️ Hardened Images</text></g><g transform="translate(0, 215) translate(180, 0)"><rect width="150" height="42" x="0" y="0" fill="url(#card-grad)" stroke="#334155" stroke-width="1.5" rx="10"/><text x="75" y="26" fill="#e2e8f0" font-family="-apple-system, BlinkMacSystemFont, 'Segoe UI', Roboto, sans-serif" font-size="13" font-weight="600">🐧 LXC &amp; OCI Builds</text></g></g><rect width="500" height="3" x="-250" y="295" fill="url(#primary-glow)" rx="1.5"/></g></svg>